<?xml version="1.0" encoding="UTF-8"?><svg id="Calque_1" xmlns="http://www.w3.org/2000/svg" viewBox="0 0 1940.61 1695.02"><defs><style>.cls-1{fill:#fff;}.cls-2{fill:#4b5c35;stroke:#4b5c35;stroke-miterlimit:10;stroke-width:30px;}</style></defs><path class="cls-1" d="M1014.76,842.61c0,5.07-.23,9.39,.05,13.68,.42,6.33,5.41,11.05,11.77,11.52,1.49,.11,3,.04,4.5,.04,59.66,0,119.32-.03,178.99,.05,3.41,0,7.08,.3,10.18,1.57,5.36,2.18,7.67,7.52,6.64,13.16-.99,5.41-5.4,9.39-11.04,9.92-1.16,.11-2.33,.07-3.5,.07-64.66,0-129.33-.31-193.98,.21-16.83,.13-30.03-11.46-28.42-28.91,1.35-14.58-2.15-28.13-7.16-41.79-18.22-49.69-35.83-99.61-53.55-149.48-1.09-3.06-1.59-6.47-1.66-9.73-.21-9.99-.04-20-.1-30-.07-10.66-4.69-15.26-15.21-15.3-3.5-.01-7.01,.15-10.5-.06-6.85-.41-11.83-5.77-11.8-12.45,.03-6.48,4.82-11.91,11.55-12.13,9.49-.31,19.03-.53,28.48,.12,12.01,.82,21.27,10.62,21.95,22.73,.45,7.97,.22,15.99,.2,23.99-.03,17.69,10.11,28.02,27.79,28.03,96.33,.02,192.65,0,288.98,.04,2.31,0,4.74-.05,6.9,.62,7.3,2.25,10.25,9.24,7.36,17.4-11.25,31.69-22.59,63.35-33.89,95.02-5.15,14.42-10.32,28.84-15.43,43.27-4.38,12.37-12.82,18.42-26.03,18.42h-193.07Zm-51.9-149.72c.76,2.28,1.35,4.16,2.01,6.01,13.48,37.75,27.03,75.48,40.35,113.29,1.49,4.22,3.3,5.93,7.99,5.85,17.62-.3,35.25-.12,52.88-.13,46.42-.02,92.83-.07,139.25,0,3.27,0,4.82-.8,6.01-4.2,13.47-38.27,27.19-76.45,40.84-114.65,.69-1.94,1.31-3.91,2.05-6.16h-291.38Z"/><path class="cls-1" d="M1064.7,955.83c-.24,20.57-17.39,37.13-38.08,36.79-20.64-.35-37-17.4-36.67-38.21,.33-20.33,17.43-36.85,37.85-36.56,20.73,.3,37.14,17.18,36.9,37.98h0Zm-24.8-.26c.2-6.97-5.38-12.81-12.35-12.91-6.79-.1-12.51,5.27-12.77,11.99-.27,7.01,5.18,12.92,12.12,13.15,7.03,.24,12.8-5.19,13-12.23h0Z"/><path class="cls-1" d="M1152.52,955.78c-.58-20,15.92-37.45,35.87-37.92,20.99-.5,38.14,15.45,38.76,36.05,.63,20.82-15.62,38.21-36.14,38.68-21.12,.48-37.88-15.54-38.5-36.81h.01Zm37.13,12.02c6.99,.09,12.81-5.59,12.8-12.51,0-6.75-5.48-12.43-12.2-12.64-6.98-.22-12.81,5.28-13.03,12.28-.22,6.92,5.43,12.77,12.43,12.87h0Z"/><path class="cls-2" d="M969.91,268.67c6.73-.84,10.26-3.84,13.45-8.05,13.29-17.53,26.71-34.96,40.35-52.2,76.11-96.19,174.16-157.29,294.01-183.27,32-6.95,64.57-10.32,97.21-10.01,146.68,1.41,270.3,56.3,370.13,163.45,69.43,74.52,112.11,163,131.31,262.86,8.54,44.4,10.93,89.33,8.1,134.33-5.37,85.46-29.29,165.54-72.87,239.48-2.52,4.27-5.57,8.29-8.73,12.12-44.8,54.34-94.32,104.24-144.13,153.91-72.68,72.49-145,145.35-217.44,218.08-96.2,96.58-192.38,193.18-288.54,289.8-61.13,61.42-122.24,122.86-183.23,184.41-4.3,4.34-8.66,6.7-14.88,6.39-7.98-.4-16.01-.45-23.99,.01-6.87,.4-11.91-1.94-16.79-6.74-32.78-32.26-65.79-64.29-98.72-96.39-120.31-117.26-240.61-234.51-360.92-351.77-109.55-106.77-219.3-213.34-328.47-320.5-19.22-18.86-35.48-40.69-54.06-60.25-28.47-29.98-44.55-66.88-59.64-104.27-18.54-45.95-29.94-93.77-34.43-143.17-13.51-148.59,24.74-282.07,119.58-397.7C211.79,108.25,307.44,50.23,422.74,25.44c34.97-7.52,70.5-11.22,106.17-10.3,146.99,3.81,269.67,61.12,368.31,169.89,21.49,23.69,41.9,48.36,62.82,72.57,3.25,3.76,6.61,7.42,9.87,11.07h0Zm11.44,1329.85c3.65-3.44,6.34-5.84,8.88-8.39,16.23-16.3,32.4-32.65,48.63-48.94,114.29-114.78,228.59-229.55,342.9-344.32,91.73-92.09,183.36-184.29,275.25-276.21,43.36-43.38,86.58-86.87,125.64-134.26,4-4.86,7.9-9.93,10.97-15.4,31-55.31,49.79-114.46,56.86-177.55,5.16-46.09,3.58-91.84-4.89-137.27-15.95-85.48-52.32-161.32-111.03-225.66-78.76-86.32-176.57-134.59-293.44-142.53-49.61-3.37-98.44,2.75-146.01,17.46-86.94,26.89-158.51,76.26-214.64,147.89-24.05,30.69-47.81,61.6-71.6,92.5-5.24,6.81-11.37,12.62-19.75,14.51-18.23,4.11-34.62,2.15-47.92-13.57-32.51-38.41-64.66-77.2-98.74-114.19-102.88-111.69-229.93-160.3-381.14-140.52-71.02,9.29-135.02,37.58-192.39,80.51-126.39,94.59-193.97,250.89-180.43,407.95,4.24,49.19,15.03,96.69,34.52,141.98,8.4,19.52,19.02,38.08,28.63,57.08,22.5,25.47,43.57,52.4,67.75,76.16,125.99,123.79,252.79,246.76,379.28,370.05,122.67,119.57,245.3,239.17,367.96,358.75,4.5,4.39,9.12,8.66,14.72,13.97h-.01Z"/></svg>