<?xml version="1.0" encoding="UTF-8"?><svg id="Calque_1" xmlns="http://www.w3.org/2000/svg" viewBox="0 0 394.31 399.94"><defs><style>.cls-1{fill:#fff;}</style></defs><path class="cls-1" d="M124.79,249.93c0,5.07-.23,9.39,.05,13.68,.42,6.33,5.41,11.05,11.77,11.52,1.49,.11,3,.04,4.5,.04,59.66,0,119.32-.03,178.99,.05,3.41,0,7.08,.3,10.18,1.57,5.36,2.18,7.67,7.52,6.64,13.16-.99,5.41-5.4,9.39-11.04,9.92-1.16,.11-2.33,.07-3.5,.07-64.66,0-129.33-.31-193.98,.21-16.83,.13-30.03-11.46-28.42-28.91,1.35-14.58-2.15-28.13-7.16-41.79-18.22-49.69-35.83-99.61-53.55-149.48-1.09-3.06-1.59-6.47-1.66-9.73-.21-9.99-.04-20-.1-30-.07-10.66-4.69-15.26-15.21-15.3-3.5-.01-7.01,.15-10.5-.06C4.95,24.47-.03,19.11,0,12.43,.03,5.95,4.82,.52,11.55,.3,21.04,0,30.58-.23,40.03,.42c12.01,.82,21.27,10.62,21.95,22.73,.45,7.97,.22,15.99,.2,23.99-.03,17.69,10.11,28.02,27.79,28.03,96.33,.02,192.65,0,288.98,.04,2.31,0,4.74-.05,6.9,.62,7.3,2.25,10.25,9.24,7.36,17.4-11.25,31.69-22.59,63.35-33.89,95.02-5.15,14.42-10.32,28.84-15.43,43.27-4.38,12.37-12.82,18.42-26.03,18.42H124.79ZM72.89,100.23c.76,2.28,1.35,4.16,2.01,6.01,13.48,37.75,27.03,75.48,40.35,113.29,1.49,4.22,3.3,5.93,7.99,5.85,17.62-.3,35.25-.12,52.88-.13,46.42-.02,92.83-.07,139.25,0,3.27,0,4.82-.8,6.01-4.2,13.47-38.27,27.19-76.45,40.84-114.65,.69-1.94,1.31-3.91,2.05-6.16H72.89Z"/><path class="cls-1" d="M174.73,363.15c-.24,20.57-17.39,37.13-38.08,36.79-20.64-.35-37-17.4-36.67-38.21,.33-20.33,17.43-36.85,37.85-36.56,20.73,.3,37.14,17.18,36.9,37.98h0Zm-24.8-.26c.2-6.97-5.38-12.81-12.35-12.91-6.79-.1-12.51,5.27-12.77,11.99-.27,7.01,5.18,12.92,12.12,13.15,7.03,.24,12.8-5.19,13-12.23h0Z"/><path class="cls-1" d="M262.55,363.1c-.58-20,15.92-37.45,35.87-37.92,20.99-.5,38.14,15.45,38.76,36.05,.63,20.82-15.62,38.21-36.14,38.68-21.12,.48-37.88-15.54-38.5-36.81h.01Zm37.13,12.02c6.99,.09,12.81-5.59,12.8-12.51,0-6.75-5.48-12.43-12.2-12.64-6.98-.22-12.81,5.28-13.03,12.28-.22,6.92,5.43,12.77,12.43,12.87h0Z"/></svg>