<?xml version="1.0" encoding="UTF-8"?><svg id="Calque_1" xmlns="http://www.w3.org/2000/svg" viewBox="0 0 581.3 580.77"><defs><style>.cls-1{fill:none;stroke:#4b5c35;stroke-miterlimit:10;stroke-width:21px;}</style></defs><path class="cls-1" d="M569.68,269.4c4.96,82.93-20.81,157.85-82.39,219.38-52.09,52.04-115.55,79.14-188.86,81.35-74.95,2.26-141.01-22.27-196.47-72.81-53.57-48.84-84.43-109.8-90.36-182.27-7.27-88.91,21.53-165.2,85.43-227.14C148.3,38.2,210.86,12.57,282.28,10.62c73.87-2.02,139.21,21.63,194.3,70.93,54.87,49.11,85.41,111.05,93.11,187.85h-.01Zm-259.04,271.28c.03-.24,.07-.48,.1-.72,2.92-.49,5.84-.92,8.75-1.47,12.96-2.45,26.09-4.26,38.83-7.56,17.03-4.41,33.24-11.22,48.81-19.53,20.62-11,39.17-24.83,56.33-40.58,1.15-1.06,1.78-3.97,1.19-5.43-7.87-19.39-19.18-36.75-33.09-52.22-10.81-12.03-23.17-22.52-36.77-31.51-29.55-19.55-62.19-29.5-97.29-31.41-19.8-1.08-39.34,1.72-58.46,7.02-19.17,5.31-37.13,13.43-53.62,24.5-15.29,10.27-28.94,22.43-40.83,36.62-11.92,14.22-21.43,29.85-28.85,46.77-.63,1.45-.02,4.42,1.13,5.5,5.78,5.44,11.73,10.75,17.99,15.64,23.61,18.46,49.55,32.73,78.1,42,23.32,7.57,47.34,11.42,71.81,12.33,8.61,.32,17.24,.05,25.86,.05h0Zm-20.2-220c55.92-1.26,99.56-44.16,99.85-99.66,.3-56.76-44.02-100.29-99.05-100.67-57.45-.4-100.85,44.1-101.03,99.59-.18,56.73,44.09,99.69,100.23,100.75h0Z"/></svg>